<?xml version="1.0" standalone="no"?><!DOCTYPE svg PUBLIC "-//W3C//DTD SVG 1.1//EN" "http://www.w3.org/Graphics/SVG/1.1/DTD/svg11.dtd"><svg t="1710480524357" class="icon" viewBox="0 0 1024 1024" version="1.1" xmlns="http://www.w3.org/2000/svg" p-id="930" xmlns:xlink="http://www.w3.org/1999/xlink" width="200" height="200"><path d="M390.2464 479.8464h-204.8a78.1824 78.1824 0 0 1-78.336-78.08v-204.8a78.1824 78.1824 0 0 1 78.08-78.336h205.056a78.1824 78.1824 0 0 1 78.08 78.08v205.056a78.1824 78.1824 0 0 1-78.08 78.08z m-204.8-299.776a16.64 16.64 0 0 0-16.64 16.64v205.056a16.5888 16.5888 0 0 0 16.64 16.64h204.8a16.64 16.64 0 0 0 16.64-16.64v-204.8a16.6912 16.6912 0 0 0-16.64-16.64zM390.2464 904.2944h-204.8a78.1824 78.1824 0 0 1-78.08-78.1312v-205.056a78.1824 78.1824 0 0 1 78.08-78.08h204.8a78.1824 78.1824 0 0 1 78.08 78.08v205.056a78.1824 78.1824 0 0 1-78.08 78.1312z m-204.8-299.8272a16.64 16.64 0 0 0-16.64 16.64v205.056a16.64 16.64 0 0 0 16.64 16.6912h204.8a16.6912 16.6912 0 0 0 16.64-16.6912v-205.056a16.6912 16.6912 0 0 0-16.64-16.64zM838.8096 479.8464h-205.1072a78.1824 78.1824 0 0 1-78.08-78.08v-204.8a78.1824 78.1824 0 0 1 78.08-78.08h205.1072a78.1824 78.1824 0 0 1 78.08 78.08v204.8a78.1824 78.1824 0 0 1-78.08 78.08z m-205.1072-299.776a16.6912 16.6912 0 0 0-16.64 16.64v205.056a16.64 16.64 0 0 0 16.64 16.64h205.1072a16.64 16.64 0 0 0 16.64-16.64v-204.8a16.6912 16.6912 0 0 0-16.64-16.64z" fill="#00A0E9" p-id="931"></path><path d="M583.2192 901.12a30.72 30.72 0 0 1-30.72-30.72v-297.6256a30.72 30.72 0 0 1 61.44 0V870.4a30.72 30.72 0 0 1-30.72 30.72zM732.7232 901.12a30.72 30.72 0 0 1-30.72-30.72v-297.6256a30.72 30.72 0 0 1 61.44 0V870.4a30.72 30.72 0 0 1-30.72 30.72zM885.1968 901.12a30.72 30.72 0 0 1-30.72-30.72v-297.6256a30.72 30.72 0 0 1 61.44 0V870.4a30.72 30.72 0 0 1-30.72 30.72z" fill="#F39800" p-id="932"></path></svg>
